<svg width="600" height="446" viewBox="0 0 600 446" fill="none" xmlns="http://www.w3.org/2000/svg">
<path d="M27.8799 424.991C36.2025 438.735 53.8661 444.635 53.8661 444.635C53.8661 444.635 58.036 428.251 49.7134 414.508C41.3908 400.764 23.7273 394.864 23.7273 394.864C23.7273 394.864 19.5573 411.247 27.8799 424.991Z" fill="#2F2E41"/>
<path d="M33.6004 420.469C48.6261 428.519 54.413 444.508 54.413 444.508C54.413 444.508 35.8383 447.445 20.8126 439.396C5.78688 431.346 0 415.358 0 415.358C0 415.358 18.5746 412.42 33.6004 420.469Z" fill="#6C63FF"/>
<path d="M370.479 21.4111H276.729V22.6036H370.479V21.4111Z" fill="#F2F2F2"/>
<path d="M345.032 22.3055H343.693V33.3367H345.032V22.3055Z" fill="#F2F2F2"/>
<path d="M304.184 22.3055H302.845V33.3367H304.184V22.3055Z" fill="#F2F2F2"/>
<path d="M418.024 78.6539H324.274V79.8465H418.024V78.6539Z" fill="#F2F2F2"/>
<path d="M351.059 67.9209H349.72V78.952H351.059V67.9209Z" fill="#F2F2F2"/>
<path d="M391.907 67.9209H390.568V78.952H391.907V67.9209Z" fill="#F2F2F2"/>
<path d="M542.577 105.486H448.827V106.679H542.577V105.486Z" fill="#F2F2F2"/>
<path d="M475.613 94.7534H474.274V105.785H475.613V94.7534Z" fill="#F2F2F2"/>
<path d="M516.461 94.7534H515.122V105.785H516.461V94.7534Z" fill="#F2F2F2"/>
<path d="M533.202 382.16H439.452V383.353H533.202V382.16Z" fill="#F2F2F2"/>
<path d="M466.238 371.427H464.899V382.458H466.238V371.427Z" fill="#F2F2F2"/>
<path d="M507.086 371.427H505.747V382.458H507.086V371.427Z" fill="#F2F2F2"/>
<path d="M373.157 190.754H279.407V191.947H373.157V190.754Z" fill="#F2F2F2"/>
<path d="M306.193 180.021H304.854V191.053H306.193V180.021Z" fill="#F2F2F2"/>
<path d="M347.041 180.021H345.702V191.053H347.041V180.021Z" fill="#F2F2F2"/>
<path d="M402.622 334.458H308.872V335.65H402.622V334.458Z" fill="#F2F2F2"/>
<path d="M335.658 323.725H334.318V334.756H335.658V323.725Z" fill="#F2F2F2"/>
<path d="M376.506 323.725H375.166V334.756H376.506V323.725Z" fill="#F2F2F2"/>
<path d="M552.622 290.929H458.872V292.122H552.622V290.929Z" fill="#F2F2F2"/>
<path d="M485.657 280.196H484.318V291.228H485.657V280.196Z" fill="#F2F2F2"/>
<path d="M526.506 280.196H525.166V291.228H526.506V280.196Z" fill="#F2F2F2"/>
<path d="M242.451 418.698H83.8889V417.682H241.31V368.418H97.2188L90.219 355.433L91.2476 354.993L97.9366 367.402H242.451V418.698Z" fill="#2F2E41"/>
<path d="M104.992 443.584C111.607 443.584 116.97 438.809 116.97 432.919C116.97 427.028 111.607 422.253 104.992 422.253C98.3772 422.253 93.0146 427.028 93.0146 432.919C93.0146 438.809 98.3772 443.584 104.992 443.584Z" fill="#3F3D56"/>
<path d="M223.058 443.584C229.674 443.584 235.036 438.809 235.036 432.919C235.036 427.028 229.674 422.253 223.058 422.253C216.443 422.253 211.081 427.028 211.081 432.919C211.081 438.809 216.443 443.584 223.058 443.584Z" fill="#3F3D56"/>
<path d="M362.228 213.006C366.323 213.006 369.643 210.05 369.643 206.404C369.643 202.758 366.323 199.801 362.228 199.801C358.133 199.801 354.813 202.758 354.813 206.404C354.813 210.05 358.133 213.006 362.228 213.006Z" fill="#3F3D56"/>
<path d="M259.41 351.658H81.1853L42.6217 239.416H299.124L298.891 240.077L259.41 351.658ZM82.0292 350.642H258.573L297.569 240.432H44.1635L82.0292 350.642Z" fill="#2F2E41"/>
<path d="M245.498 345.817H88.9567L55.0848 246.272H280.38L280.175 246.859L245.498 345.817Z" fill="#F2F2F2"/>
<path d="M302.32 229.389L301.217 229.128L308.745 203.864H352.532V204.88H309.623L302.32 229.389Z" fill="#2F2E41"/>
<path d="M286.307 273.444H55.0838V274.46H286.307V273.444Z" fill="#2F2E41"/>
<path d="M273.065 310.867H67.9413V311.882H273.065V310.867Z" fill="#2F2E41"/>
<path d="M171.44 239.924H170.299V351.15H171.44V239.924Z" fill="#2F2E41"/>
<path d="M222.513 239.892L214.324 351.115L215.463 351.182L223.651 239.959L222.513 239.892Z" fill="#2F2E41"/>
<path d="M119.25 239.891L118.112 239.957L126.253 351.183L127.391 351.117L119.25 239.891Z" fill="#2F2E41"/>
<path d="M600 444.228H0V445.421H600V444.228Z" fill="#2F2E41"/>
<path d="M134.095 210.432H40.345V211.624H134.095V210.432Z" fill="#F2F2F2"/>
<path d="M67.1307 199.699H65.7914V210.73H67.1307V199.699Z" fill="#F2F2F2"/>
<path d="M107.979 199.699H106.64V210.73H107.979V199.699Z" fill="#F2F2F2"/>
<path d="M166.907 33.933H73.1575V35.1255H166.907V33.933Z" fill="#F2F2F2"/>
<path d="M141.461 34.8274H140.122V45.8585H141.461V34.8274Z" fill="#F2F2F2"/>
<path d="M100.613 34.8274H99.2736V45.8585H100.613V34.8274Z" fill="#F2F2F2"/>
<path d="M261.327 151.4H167.577V152.593H261.327V151.4Z" fill="#F2F2F2"/>
<path d="M235.881 152.294H234.541V163.326H235.881V152.294Z" fill="#F2F2F2"/>
<path d="M195.032 152.294H193.693V163.326H195.032V152.294Z" fill="#F2F2F2"/>
<path d="M101.952 150.804H8.20212V151.996H101.952V150.804Z" fill="#F2F2F2"/>
<path d="M76.5057 151.698H75.1664V162.729H76.5057V151.698Z" fill="#F2F2F2"/>
<path d="M35.6575 151.698H34.3182V162.729H35.6575V151.698Z" fill="#F2F2F2"/>
<path d="M214.452 91.1758H120.702V92.3683H214.452V91.1758Z" fill="#F2F2F2"/>
<path d="M147.488 80.4427H146.149V91.4739H147.488V80.4427Z" fill="#F2F2F2"/>
<path d="M188.336 80.4427H186.997V91.4739H188.336V80.4427Z" fill="#F2F2F2"/>
<path d="M227.461 180.605L227.45 180.611L176.029 209.296L119.723 181.091L118.752 180.605L121.675 122.051L172.522 85.7475L173.084 86.0989L225.708 119.123L227.461 180.605Z" fill="#6C63FF"/>
<path opacity="0.3" d="M227.45 180.611L176.029 209.296L119.723 181.091L169.6 146.058L227.45 180.611Z" fill="black"/>
<path opacity="0.1" d="M227.461 180.605L169.6 146.058L173.084 86.0989L225.708 119.123L227.461 180.605Z" fill="black"/>
<path d="M120.926 140.119L120.64 139.714L172.056 103.356L226.369 137.471L226.106 137.892L172.072 103.951L120.926 140.119Z" fill="#F2F2F2"/>
<path d="M119.93 160.012L119.652 159.601L170.806 124.807L170.94 124.883L226.415 156.382L226.17 156.814L170.829 125.391L119.93 160.012Z" fill="#F2F2F2"/>
<path d="M139.447 191.117L139.187 190.695L190.742 158.691V97.3358H191.237V158.967L139.447 191.117Z" fill="#F2F2F2"/>
<path d="M159.683 201.252L159.42 200.832L209.061 169.638V108.832H209.556V169.913L159.683 201.252Z" fill="#F2F2F2"/>
<path d="M208.874 191.123L151.141 158.986L151.149 158.832L154.188 98.6486L154.683 98.6739L151.651 158.702L209.115 190.689L208.874 191.123Z" fill="#F2F2F2"/>
<path d="M190.71 201.262L133.625 171.292L133.634 171.132L136.999 110.92L137.494 110.947L134.138 171.001L190.94 200.822L190.71 201.262Z" fill="#F2F2F2"/>
</svg>
